<svg id="visual" viewBox="0 0 900 250" width="900" height="250" xmlns="http://www.w3.org/2000/svg" xmlns:xlink="http://www.w3.org/1999/xlink" version="1.1"><rect x="0" y="0" width="900" height="250" fill="#fff"></rect><path d="M0 154L21.5 158.7C43 163.3 86 172.7 128.8 175.5C171.7 178.3 214.3 174.7 257.2 173.2C300 171.7 343 172.3 385.8 173.7C428.7 175 471.3 177 514.2 176C557 175 600 171 642.8 165.5C685.7 160 728.3 153 771.2 155.3C814 157.7 857 169.3 878.5 175.2L900 181L900 251L878.5 251C857 251 814 251 771.2 251C728.3 251 685.7 251 642.8 251C600 251 557 251 514.2 251C471.3 251 428.7 251 385.8 251C343 251 300 251 257.2 251C214.3 251 171.7 251 128.8 251C86 251 43 251 21.5 251L0 251Z" fill="#ffffff"></path><path d="M0 198L21.5 196.7C43 195.3 86 192.7 128.8 189C171.7 185.3 214.3 180.7 257.2 177.8C300 175 343 174 385.8 172.3C428.7 170.7 471.3 168.3 514.2 172C557 175.7 600 185.3 642.8 185.8C685.7 186.3 728.3 177.7 771.2 175.3C814 173 857 177 878.5 179L900 181L900 251L878.5 251C857 251 814 251 771.2 251C728.3 251 685.7 251 642.8 251C600 251 557 251 514.2 251C471.3 251 428.7 251 385.8 251C343 251 300 251 257.2 251C214.3 251 171.7 251 128.8 251C86 251 43 251 21.5 251L0 251Z" fill="#c2c1c1"></path><path d="M0 191L21.5 190.2C43 189.3 86 187.7 128.8 189.5C171.7 191.3 214.3 196.7 257.2 200.2C300 203.7 343 205.3 385.8 205.8C428.7 206.3 471.3 205.7 514.2 202.3C557 199 600 193 642.8 192.2C685.7 191.3 728.3 195.7 771.2 199C814 202.3 857 204.7 878.5 205.8L900 207L900 251L878.5 251C857 251 814 251 771.2 251C728.3 251 685.7 251 642.8 251C600 251 557 251 514.2 251C471.3 251 428.7 251 385.8 251C343 251 300 251 257.2 251C214.3 251 171.7 251 128.8 251C86 251 43 251 21.5 251L0 251Z" fill="#888787"></path><path d="M0 209L21.5 209.2C43 209.3 86 209.7 128.8 211.5C171.7 213.3 214.3 216.7 257.2 218.2C300 219.7 343 219.3 385.8 219.3C428.7 219.3 471.3 219.7 514.2 219.3C557 219 600 218 642.8 218.5C685.7 219 728.3 221 771.2 218.7C814 216.3 857 209.7 878.5 206.3L900 203L900 251L878.5 251C857 251 814 251 771.2 251C728.3 251 685.7 251 642.8 251C600 251 557 251 514.2 251C471.3 251 428.7 251 385.8 251C343 251 300 251 257.2 251C214.3 251 171.7 251 128.8 251C86 251 43 251 21.5 251L0 251Z" fill="#525151"></path><path d="M0 235L21.5 234C43 233 86 231 128.8 228.3C171.7 225.7 214.3 222.3 257.2 220.8C300 219.3 343 219.7 385.8 220.8C428.7 222 471.3 224 514.2 225.5C557 227 600 228 642.8 228.8C685.7 229.7 728.3 230.3 771.2 231C814 231.7 857 232.3 878.5 232.7L900 233L900 251L878.5 251C857 251 814 251 771.2 251C728.3 251 685.7 251 642.8 251C600 251 557 251 514.2 251C471.3 251 428.7 251 385.8 251C343 251 300 251 257.2 251C214.3 251 171.7 251 128.8 251C86 251 43 251 21.5 251L0 251Z" fill="#222121"></path></svg>