<svg width="51" height="42" viewBox="0 0 51 42" fill="none" xmlns="http://www.w3.org/2000/svg">
<path d="M51 4.98908C49.1245 5.80919 47.0835 6.39943 44.9813 6.62931C47.1639 5.31486 48.7984 3.23825 49.5781 0.789078C47.5299 2.02416 45.2862 2.89022 42.9464 3.34884C41.9685 2.28906 40.7857 1.4448 39.4718 0.868651C38.158 0.292504 36.7411 -0.00317972 35.3096 2.57865e-05C29.5176 2.57865e-05 24.8595 4.75919 24.8595 10.5994C24.8595 11.4195 24.9576 12.2397 25.1169 13.0287C16.4443 12.569 8.70941 8.36896 3.56712 1.93849C2.63014 3.5608 2.13913 5.40799 2.14517 7.28789C2.14517 10.966 3.99002 14.2092 6.80327 16.1166C5.14538 16.0504 3.52632 15.5885 2.07776 14.7684V14.8988C2.07776 20.0494 5.66939 24.3178 10.4562 25.2994C9.55742 25.5361 8.63284 25.6571 7.70424 25.6598C7.02392 25.6598 6.38036 25.5914 5.73068 25.4982C7.05456 29.6982 10.9097 32.7488 15.5004 32.8482C11.9088 35.7 7.41005 37.3775 2.52518 37.3775C1.64872 37.3775 0.839683 37.3465 0 37.247C4.63358 40.2604 10.1314 42 16.052 42C35.2728 42 45.7903 25.8586 45.7903 11.8482C45.7903 11.3885 45.7903 10.9287 45.7596 10.469C47.7945 8.95919 49.5781 7.08907 51 4.98908Z" fill="black"/>
</svg>
